<mxfile host="app.diagrams.net" modified="2022-11-05T00:37:40.159Z" agent="5.0 (X11; Linux x86_64) AppleWebKit/537.36 (KHTML, like Gecko) Chrome/104.0.0.0 Safari/537.36" etag="URZMakY8vKJpW4oFl2uP" version="20.4.1" type="github">
  <diagram id="d1UGlg10RTn8FGWX02N2" name="Página-1">
    <mxGraphModel dx="796" dy="400" grid="0" gridSize="10" guides="1" tooltips="1" connect="1" arrows="1" fold="1" page="1" pageScale="1" pageWidth="827" pageHeight="1169" math="0" shadow="0">
      <root>
        <mxCell id="0" />
        <mxCell id="1" parent="0" />
        <mxCell id="9z2Wm28B5pkvkPLOybwL-1" value="detectron&lt;br&gt;auto o no" style="whiteSpace=wrap;html=1;aspect=fixed;fillColor=#f5f5f5;fontColor=#333333;strokeColor=#666666;" vertex="1" parent="1">
          <mxGeometry x="210" y="200" width="80" height="80" as="geometry" />
        </mxCell>
        <mxCell id="9z2Wm28B5pkvkPLOybwL-2" value="" style="shape=flexArrow;endArrow=classic;html=1;rounded=0;fillColor=#dae8fc;strokeColor=#6c8ebf;" edge="1" parent="1">
          <mxGeometry width="50" height="50" relative="1" as="geometry">
            <mxPoint x="160" y="240" as="sourcePoint" />
            <mxPoint x="200" y="240" as="targetPoint" />
          </mxGeometry>
        </mxCell>
        <mxCell id="9z2Wm28B5pkvkPLOybwL-4" value="MovileNetV2&lt;br&gt;dentro o fuera" style="whiteSpace=wrap;html=1;aspect=fixed;fillColor=#fff2cc;strokeColor=#d6b656;" vertex="1" parent="1">
          <mxGeometry x="310" y="200" width="80" height="80" as="geometry" />
        </mxCell>
        <mxCell id="9z2Wm28B5pkvkPLOybwL-7" value="" style="shape=flexArrow;endArrow=classic;html=1;rounded=0;fillColor=#dae8fc;strokeColor=#6c8ebf;" edge="1" parent="1">
          <mxGeometry width="50" height="50" relative="1" as="geometry">
            <mxPoint x="620" y="240" as="sourcePoint" />
            <mxPoint x="660" y="240" as="targetPoint" />
          </mxGeometry>
        </mxCell>
        <mxCell id="9z2Wm28B5pkvkPLOybwL-8" value="data cruda&lt;br&gt;(por clase de vehiculo)&lt;br&gt;marca modelo año&lt;br&gt;sin unificar: 6274&lt;br&gt;unificado: 837" style="text;html=1;align=center;verticalAlign=middle;resizable=0;points=[];autosize=1;strokeColor=none;fillColor=none;" vertex="1" parent="1">
          <mxGeometry x="21" y="199" width="139" height="84" as="geometry" />
        </mxCell>
        <mxCell id="9z2Wm28B5pkvkPLOybwL-11" value="carros clasificados&amp;nbsp;&lt;br&gt;por carpeta" style="text;html=1;align=center;verticalAlign=middle;resizable=0;points=[];autosize=1;strokeColor=none;fillColor=none;" vertex="1" parent="1">
          <mxGeometry x="507" y="297" width="120" height="41" as="geometry" />
        </mxCell>
        <mxCell id="9z2Wm28B5pkvkPLOybwL-15" value="preprocesamiento:&lt;br&gt;- ver si es auto o dos (DetectronV2)&lt;br&gt;&lt;span style=&quot;background-color: initial;&quot;&gt;- dentro o fuera (MobileNetV2) 0.0383&lt;/span&gt;&lt;br&gt;&lt;div style=&quot;&quot;&gt;&lt;span style=&quot;background-color: initial;&quot;&gt;- recortar (DetectronV2)&lt;/span&gt;&lt;/div&gt;&lt;div style=&quot;&quot;&gt;&lt;span style=&quot;background-color: initial;&quot;&gt;- poner solo 100 imagenes por clase (script)&lt;/span&gt;&lt;/div&gt;&lt;div style=&quot;&quot;&gt;&lt;span style=&quot;background-color: initial;&quot;&gt;- generar CSV con path de imagenes&amp;nbsp;&lt;/span&gt;&lt;/div&gt;(script)" style="text;html=1;align=left;verticalAlign=middle;resizable=0;points=[];autosize=1;strokeColor=none;fillColor=none;" vertex="1" parent="1">
          <mxGeometry x="222" y="71" width="252" height="113" as="geometry" />
        </mxCell>
        <mxCell id="9z2Wm28B5pkvkPLOybwL-17" value="detectron&lt;br&gt;recortar" style="whiteSpace=wrap;html=1;aspect=fixed;fillColor=#f5f5f5;fontColor=#333333;strokeColor=#666666;" vertex="1" parent="1">
          <mxGeometry x="412" y="200" width="80" height="80" as="geometry" />
        </mxCell>
        <mxCell id="9z2Wm28B5pkvkPLOybwL-19" value="por definir&lt;br&gt;clasificacion final" style="whiteSpace=wrap;html=1;aspect=fixed;fillColor=#d5e8d4;strokeColor=#82b366;" vertex="1" parent="1">
          <mxGeometry x="682" y="200" width="80" height="80" as="geometry" />
        </mxCell>
        <mxCell id="9z2Wm28B5pkvkPLOybwL-20" value="script&lt;br&gt;837 carpetas" style="whiteSpace=wrap;html=1;aspect=fixed;fillColor=#f8cecc;strokeColor=#b85450;" vertex="1" parent="1">
          <mxGeometry x="522" y="200" width="80" height="80" as="geometry" />
        </mxCell>
        <mxCell id="9z2Wm28B5pkvkPLOybwL-21" value="entranamiento final" style="text;html=1;align=center;verticalAlign=middle;resizable=0;points=[];autosize=1;strokeColor=none;fillColor=none;" vertex="1" parent="1">
          <mxGeometry x="656" y="103" width="120" height="26" as="geometry" />
        </mxCell>
        <mxCell id="9z2Wm28B5pkvkPLOybwL-22" value="" style="endArrow=none;dashed=1;html=1;rounded=0;" edge="1" parent="1">
          <mxGeometry width="50" height="50" relative="1" as="geometry">
            <mxPoint x="631" y="325" as="sourcePoint" />
            <mxPoint x="631" y="135" as="targetPoint" />
          </mxGeometry>
        </mxCell>
      </root>
    </mxGraphModel>
  </diagram>
</mxfile>
